<svg width="24" height="24" viewBox="0 0 24 24" fill="none" xmlns="http://www.w3.org/2000/svg">
<g clip-path="url(#clip0_202_34)">
<path d="M17.61 9.8501L18.17 10.4101L9.69003 18.9001C9.30003 19.2901 9.30003 19.9201 9.69003 20.3101C10.08 20.7001 10.71 20.7001 11.1 20.3101L19.59 11.8201L20.15 12.3801C20.46 12.7001 21 12.4801 21 12.0401V9.5001C21 9.2201 20.78 9.0001 20.5 9.0001H17.96C17.52 9.0001 17.3 9.5401 17.61 9.8501ZM8.48003 12.7501L12.02 9.2101L13.62 9.8801C13.98 10.0301 14.39 9.9501 14.67 9.6701C15.16 9.1801 14.99 8.3601 14.35 8.1001L5.26003 4.5001C4.83003 4.3401 4.35003 4.4401 4.03003 4.7601C3.71003 5.0801 3.61003 5.5601 3.78003 5.9901L7.39003 15.0801C7.64003 15.7201 8.47003 15.8901 8.96003 15.4001C9.24003 15.1201 9.32003 14.7101 9.17003 14.3501L8.48003 12.7501ZM7.66003 11.0301L5.43003 6.1601L10.3 8.3901L7.66003 11.0301Z" fill="white" fill-opacity="0.5"/>
</g>
<defs>
<clipPath id="clip0_202_34">
<rect width="24" height="24" fill="white"/>
</clipPath>
</defs>
</svg>
