<svg width="24" height="24" viewBox="0 0 24 24" fill="none" xmlns="http://www.w3.org/2000/svg">
<g clip-path="url(#clip0_205_37)">
<path d="M7.00001 16.7101C7.00001 16.2601 6.46001 16.0401 6.15001 16.3601L3.85001 18.6501C3.65001 18.8501 3.65001 19.1601 3.85001 19.3601L6.15001 21.6501C6.46001 21.9601 7.00001 21.7401 7.00001 21.2901L7.00001 20.0001L17 20.0001L17 21.2901C17 21.7401 17.54 21.9601 17.85 21.6401L20.14 19.3501C20.34 19.1501 20.34 18.8401 20.14 18.6401L17.85 16.3501C17.54 16.0401 17 16.2601 17 16.7101L17 18.0001L7.00001 18.0001L7.00001 16.7101ZM7.00001 13.0001L7.00001 3.00006C7.00001 2.45006 6.55001 2.00006 6.00001 2.00006C5.45001 2.00006 5.00001 2.45006 5.00001 3.00006L5.00001 13.0001C5.00001 13.5501 5.45001 14.0001 6.00001 14.0001C6.55001 14.0001 7.00001 13.5501 7.00001 13.0001ZM17 3.00006L17 13.0001C17 13.5501 17.45 14.0001 18 14.0001C18.55 14.0001 19 13.5501 19 13.0001L19 3.00006C19 2.45006 18.55 2.00006 18 2.00006C17.45 2.00006 17 2.45006 17 3.00006ZM11 3.00006L11 13.0001C11 13.5501 11.45 14.0001 12 14.0001C12.55 14.0001 13 13.5501 13 13.0001L13 3.00006C13 2.45006 12.55 2.00006 12 2.00006C11.45 2.00006 11 2.45006 11 3.00006Z" fill="white" fill-opacity="0.5"/>
</g>
<defs>
<clipPath id="clip0_205_37">
<rect width="24" height="24" fill="white" transform="translate(0 24) rotate(-90)"/>
</clipPath>
</defs>
</svg>
